<?xml version="1.0" standalone="no"?>
<!DOCTYPE svg PUBLIC "-//W3C//DTD SVG 20010904//EN"
 "http://www.w3.org/TR/2001/REC-SVG-20010904/DTD/svg10.dtd">
<svg version="1.0" xmlns="http://www.w3.org/2000/svg"
 width="6318.000000pt" height="3510.000000pt" viewBox="0 0 6318.000000 3510.000000"
 preserveAspectRatio="xMidYMid meet">

<g transform="translate(0.000000,3510.000000) scale(0.100000,-0.100000)"
fill="#000000" stroke="none">
<path d="M29540 17175 l0 -145 2685 0 2685 0 0 145 0 145 -2685 0 -2685 0 0
-145z"/>
<path d="M40240 17175 l0 -145 2445 0 2445 0 0 145 0 145 -2445 0 -2445 0 0
-145z"/>
<path d="M52920 17175 l0 -145 1238 -2 c680 -2 2989 -2 5130 0 l3892 2 0 145
0 145 -5130 0 -5130 0 0 -145z"/>
</g>
</svg>
